<?xml version="1.0" encoding="UTF-8" standalone="no"?>
<!-- Created with Inkscape (http://www.inkscape.org/) -->

<svg
   width="96"
   height="96"
   viewBox="0 0 25.4 25.4"
   version="1.1"
   id="svg1"
   inkscape:version="1.4.2 (ebf0e940, 2025-05-08)"
   sodipodi:docname="favicon.svg"
   inkscape:export-filename="favicon.png"
   inkscape:export-xdpi="13.669881"
   inkscape:export-ydpi="13.669881"
   xmlns:inkscape="http://www.inkscape.org/namespaces/inkscape"
   xmlns:sodipodi="http://sodipodi.sourceforge.net/DTD/sodipodi-0.dtd"
   xmlns="http://www.w3.org/2000/svg"
   xmlns:svg="http://www.w3.org/2000/svg">
  <sodipodi:namedview
     id="namedview1"
     pagecolor="#ffffff"
     bordercolor="#000000"
     borderopacity="0.25"
     inkscape:showpageshadow="2"
     inkscape:pageopacity="0.0"
     inkscape:pagecheckerboard="0"
     inkscape:deskcolor="#d1d1d1"
     inkscape:document-units="mm"
     inkscape:zoom="3.5337672"
     inkscape:cx="52.069077"
     inkscape:cy="69.614092"
     inkscape:window-width="1520"
     inkscape:window-height="917"
     inkscape:window-x="313"
     inkscape:window-y="67"
     inkscape:window-maximized="0"
     inkscape:current-layer="layer1" />
  <defs
     id="defs1" />
  <g
     inkscape:label="Layer 1"
     inkscape:groupmode="layer"
     id="layer1"
     transform="translate(-82.065071,-94.602791)">
    <rect
       style="fill:#ffffe0;fill-opacity:1;stroke-width:0.850523"
       id="rect1"
       width="25.399998"
       height="25.399998"
       x="82.065071"
       y="94.602791" />
    <path
       style="font-weight:bold;font-size:72.184px;line-height:1;font-family:'Times New Roman';-inkscape-font-specification:'Times New Roman, ';text-align:end;letter-spacing:-4.57466px;text-anchor:end;fill:#8b0000;stroke-width:7.69241"
       d="m 92.582155,98.268752 v 11.872918 l 2.888367,-2.83513 q 0.8918,-0.86518 1.104769,-1.25118 0.226276,-0.386 0.226276,-0.74539 0,-0.35938 -0.292829,-0.59896 -0.292827,-0.2396 -1.144697,-0.34607 v -0.4925 h 5.577079 v 0.4925 q -0.79863,0.04 -1.397598,0.38599 -0.598972,0.33277 -2.342639,2.0365 l -1.357665,1.33105 2.928299,4.28597 q 1.770293,2.60885 2.103053,2.92829 0.45255,0.45256 1.1447,0.5058 v 0.47918 h -6.428952 v -0.47918 q 0.425932,0 0.61228,-0.15973 0.199657,-0.15971 0.199657,-0.34607 0,-0.30614 -0.559037,-1.13139 l -2.462434,-3.60713 -0.798629,0.78532 v 2.23616 q 0,1.42422 0.266207,1.78359 0.266213,0.34608 1.091458,0.43925 v 0.47918 h -6.428946 v -0.47918 q 0.785316,-0.0798 1.118078,-0.5058 0.226277,-0.29282 0.226277,-1.71704 v -12.64493 q 0,-1.410903 -0.266208,-1.756989 -0.2529,-0.346058 -1.078147,-0.452547 v -0.492482 z"
       id="text1"
       aria-label="k" />
  </g>
</svg>
